<?xml version="1.0" encoding="UTF-8"?>
<svg version="1.1" xmlns="http://www.w3.org/2000/svg" width="512" height="512">
<path d="M0 0 C1.01201477 0.00054382 2.02402954 0.00108765 3.06671143 0.00164795 C19.59887291 0.04238923 35.523992 0.95817716 51.75 4.375 C52.78125 4.58930664 53.8125 4.80361328 54.875 5.02441406 C101.10680927 14.94980561 143.72188765 37.60106665 177.75 70.375 C178.7390332 71.32318604 178.7390332 71.32318604 179.74804688 72.29052734 C189.23630305 81.43497479 197.9762044 90.73234009 205.75 101.375 C206.60806152 102.52605017 207.46613451 103.67709177 208.32421875 104.828125 C214.36236829 113.01930614 219.72095521 121.53304105 224.75 130.375 C225.11448242 131.00680176 225.47896484 131.63860352 225.85449219 132.28955078 C240.78473018 158.37464001 250.26385054 187.71085114 254.75 217.375 C254.92660156 218.49745117 255.10320312 219.61990234 255.28515625 220.77636719 C256.9420586 232.38947743 257.14873513 243.90679945 257.125 255.625 C257.12418427 257.14302216 257.12418427 257.14302216 257.12335205 258.69171143 C257.08261077 275.22387291 256.16682284 291.148992 252.75 307.375 C252.42854004 308.921875 252.42854004 308.921875 252.10058594 310.5 C242.17519439 356.73180927 219.52393335 399.34688765 186.75 433.375 C186.11787598 434.03435547 185.48575195 434.69371094 184.83447266 435.37304688 C175.69002521 444.86130305 166.39265991 453.6012044 155.75 461.375 C154.59894983 462.23306152 153.44790823 463.09113451 152.296875 463.94921875 C144.10569386 469.98736829 135.59195895 475.34595521 126.75 480.375 C126.11819824 480.73948242 125.48639648 481.10396484 124.83544922 481.47949219 C98.75035999 496.40973018 69.41414886 505.88885054 39.75 510.375 C38.62754883 510.55160156 37.50509766 510.72820312 36.34863281 510.91015625 C24.73552257 512.5670586 13.21820055 512.77373513 1.5 512.75 C-0.01802216 512.74918427 -0.01802216 512.74918427 -1.56671143 512.74835205 C-18.09887291 512.70761077 -34.023992 511.79182284 -50.25 508.375 C-51.796875 508.05354004 -51.796875 508.05354004 -53.375 507.72558594 C-99.60680927 497.80019439 -142.22188765 475.14893335 -176.25 442.375 C-176.90935547 441.74287598 -177.56871094 441.11075195 -178.24804688 440.45947266 C-187.73630305 431.31502521 -196.4762044 422.01765991 -204.25 411.375 C-205.10806152 410.22394983 -205.96613451 409.07290823 -206.82421875 407.921875 C-212.86236829 399.73069386 -218.22095521 391.21695895 -223.25 382.375 C-223.61448242 381.74319824 -223.97896484 381.11139648 -224.35449219 380.46044922 C-239.28473018 354.37535999 -248.76385054 325.03914886 -253.25 295.375 C-253.51490234 293.69132324 -253.51490234 293.69132324 -253.78515625 291.97363281 C-255.4420586 280.36052257 -255.64873513 268.84320055 -255.625 257.125 C-255.62445618 256.11298523 -255.62391235 255.10097046 -255.62335205 254.05828857 C-255.58261077 237.52612709 -254.66682284 221.601008 -251.25 205.375 C-251.03569336 204.34375 -250.82138672 203.3125 -250.60058594 202.25 C-240.67519439 156.01819073 -218.02393335 113.40311235 -185.25 79.375 C-184.61787598 78.71564453 -183.98575195 78.05628906 -183.33447266 77.37695312 C-174.19002521 67.88869695 -164.89265991 59.1487956 -154.25 51.375 C-153.09894983 50.51693848 -151.94790823 49.65886549 -150.796875 48.80078125 C-142.60569386 42.76263171 -134.09195895 37.40404479 -125.25 32.375 C-124.61819824 32.01051758 -123.98639648 31.64603516 -123.33544922 31.27050781 C-97.25035999 16.34026982 -67.91414886 6.86114946 -38.25 2.375 C-37.12754883 2.19839844 -36.00509766 2.02179687 -34.84863281 1.83984375 C-23.23552257 0.1829414 -11.71820055 -0.02373513 0 0 Z " fill="#112244" transform="translate(255.25,-0.375)"/>
<path d="M0 0 C0.68916504 -0.01844971 1.37833008 -0.03689941 2.08837891 -0.0559082 C7.23350612 0.010324 10.81031829 1.87281829 14.4375 5.5 C16.06933307 5.60822389 17.70582343 5.64685031 19.34120178 5.65821838 C20.93353889 5.67290161 20.93353889 5.67290161 22.55804443 5.68788147 C23.73264221 5.69363693 24.90723999 5.6993924 26.11743164 5.70532227 C27.34652756 5.71522186 28.57562347 5.72512146 29.84196472 5.73532104 C33.2219579 5.76157201 36.60192665 5.78340783 39.98195958 5.80332303 C43.51073999 5.82514459 47.03947678 5.85255195 50.56822205 5.87937927 C57.25469954 5.92935811 63.94120118 5.97427761 70.62772602 6.01740164 C78.238274 6.06672974 85.84877824 6.12166424 93.45928395 6.17708123 C109.1186489 6.29098093 124.77805404 6.39780248 140.4375 6.5 C138.2976042 12.21352758 135.80903071 13.81861599 130.4375 16.5 C117.12111919 22.41385978 103.02951406 22.9546817 88.6968689 23.81781006 C85.64220318 24.00274231 82.58831614 24.19775299 79.53442383 24.39501953 C71.00003969 24.94142404 62.46660123 25.47146879 53.92324829 25.85699463 C50.9951007 25.98920125 48.06772181 26.13549778 45.14025879 26.28198242 C43.18503392 26.37222904 41.22870558 26.43748879 39.27246094 26.50195312 C31.92335989 26.8675001 26.35422436 27.94843692 20.4375 32.5 C19.72911232 33.04479035 19.02072464 33.58958071 18.29087067 34.15087986 C16.12230891 36.41967694 16.12230891 36.41967694 16.34314728 39.69443417 C16.52868919 40.96041722 16.71423111 42.22640028 16.90539551 43.53074646 C17.09909673 44.98763185 17.29226464 46.44458822 17.48497772 47.90160465 C17.59521743 48.67485053 17.70545713 49.44809641 17.81903744 50.24477398 C19.83863485 64.66085579 20.86377001 78.95264002 20.91992188 93.50415039 C20.92348536 94.35314655 20.92704885 95.20214271 20.93072033 96.07686603 C20.94665986 101.40834642 20.9329206 106.7394919 20.91327858 112.07094121 C20.9011943 116.8449661 20.91555068 121.6189147 20.9276123 126.39292908 C20.95395666 138.44948132 20.94771003 150.50593151 20.9375 162.5625 C20.92645848 175.62555805 20.92169362 188.68845912 20.95479441 201.75149149 C20.96580866 206.4646984 20.96889733 211.17759993 20.9516449 215.89079475 C20.88264882 235.15177296 21.2502489 253.69224989 24.57897949 272.71238708 C26.47909055 284.35648249 26.47909055 284.35648249 25.4375 289.5 C22.38003781 292.42805141 20.19626794 292.93167993 16 292.9375 C12.5420306 292.81794255 10.63842142 292.59832325 7.5 291.0625 C2.34695214 284.66022842 0.42946502 277.34758723 0.15625 269.24291992 C0.10108971 267.69326538 0.10108971 267.69326538 0.04481506 266.11230469 C0.00940109 264.99629883 -0.02601288 263.88029297 -0.0625 262.73046875 C-0.10278824 261.55750244 -0.14307648 260.38453613 -0.18458557 259.17602539 C-0.31476775 255.34664534 -0.43875167 251.51709292 -0.5625 247.6875 C-0.65076298 245.05313466 -0.73922429 242.41877595 -0.82788086 239.78442383 C-1.39124864 222.83356066 -1.88309728 205.88152099 -2.22070312 188.92456055 C-2.37556619 181.53087262 -2.7055183 174.19302134 -3.32397461 166.82104492 C-3.8082632 160.07818135 -3.91034624 153.31938296 -4.0625 146.5625 C-4.08273224 145.73403564 -4.10296448 144.90557129 -4.12380981 144.05200195 C-4.42571674 131.67828531 -4.61164294 119.3042853 -4.75048447 106.92785454 C-4.77735491 104.55760962 -4.80537294 102.18738101 -4.83377075 99.81715393 C-4.85273319 98.22763075 -4.87168458 96.63810743 -4.890625 95.04858398 C-4.90005568 94.25960126 -4.90948635 93.47061853 -4.9192028 92.65772724 C-4.97491701 87.91144132 -5.02129976 83.16516901 -5.0611639 78.41872501 C-5.08830681 75.41010732 -5.12325174 72.40161294 -5.16000557 69.39309883 C-5.17551104 67.98435315 -5.18769821 66.57556632 -5.1962719 65.1667614 C-5.08601952 51.60706886 -5.08601952 51.60706886 -9.8125 39.125 C-10.18890625 38.49851563 -10.5653125 37.87203125 -10.953125 37.2265625 C-14.38359629 33.54629962 -18.14885721 32.34341346 -23.0546875 32.1015625 C-24.84893038 32.0888602 -26.64341208 32.09821555 -28.4375 32.125 C-29.91645752 32.13696411 -29.91645752 32.13696411 -31.42529297 32.14916992 C-81.76194331 33.06389053 -137.53306551 42.22771471 -177.96044922 74.48999023 C-180.46835633 76.41170725 -182.00697429 77.50081695 -185.21875 77.49609375 C-189.53477045 75.66178506 -192.12153276 72.42736628 -194.5625 68.5 C-195.77075187 64.24695341 -194.76274292 60.97557694 -193.0625 56.9375 C-183.2471265 42.04636829 -162.49406089 35.32352226 -146.5625 29.5 C-145.43739014 29.08838623 -145.43739014 29.08838623 -144.28955078 28.66845703 C-99.98821336 12.71050145 -47.11229757 0.70533382 0 0 Z " fill="#FCFDFD" transform="translate(283.5625,109.5)"/>
</svg>
